<?xml version="1.0" encoding="UTF-8" standalone="no"?>
<!-- Created with Inkscape (http://www.inkscape.org/) -->

<svg
   xmlns:dc="http://purl.org/dc/elements/1.1/"
   xmlns:cc="http://creativecommons.org/ns#"
   xmlns:rdf="http://www.w3.org/1999/02/22-rdf-syntax-ns#"
   xmlns:svg="http://www.w3.org/2000/svg"
   xmlns="http://www.w3.org/2000/svg"
   xmlns:sodipodi="http://sodipodi.sourceforge.net/DTD/sodipodi-0.dtd"
   xmlns:inkscape="http://www.inkscape.org/namespaces/inkscape"
   width="744.09448819"
   height="1052.3622047"
   id="svg2"
   version="1.1"
   inkscape:version="0.48.4 r9939"
   sodipodi:docname="New document 1">
  <sodipodi:namedview
     id="base"
     pagecolor="#ffffff"
     bordercolor="#666666"
     borderopacity="1.0"
     inkscape:pageopacity="0.0"
     inkscape:pageshadow="2"
     inkscape:zoom="0.76019455"
     inkscape:cx="372.04724"
     inkscape:cy="595.82004"
     inkscape:document-units="mm"
     inkscape:current-layer="g21789"
     showgrid="false"
     inkscape:window-width="1920"
     inkscape:window-height="1021"
     inkscape:window-x="0"
     inkscape:window-y="27"
     inkscape:window-maximized="1" />
  <defs
     id="defs4" />
  <metadata
     id="metadata7">
    <rdf:RDF>
      <cc:Work
         rdf:about="">
        <dc:format>image/svg+xml</dc:format>
        <dc:type
           rdf:resource="http://purl.org/dc/dcmitype/StillImage" />
        <dc:title></dc:title>
      </cc:Work>
    </rdf:RDF>
  </metadata>
  <g
     x="0"
     y="0"
     id="g6039">
    <g
       x="0"
       y="0"
       id="g6838">
      <g
         id="g6907"
         y="0"
         x="0"
         transform="translate(32.797928,12.614588)">
        <g
           id="g7823"
           y="0"
           x="0">
          <g
             transform="translate(-34.059387,-12.614588)"
             x="0"
             y="0"
             id="g9539">
            <g
               id="g9665"
               y="0"
               x="0">
              <g
                 x="0"
                 y="0"
                 id="g9793">
                <g
                   x="0"
                   y="0"
                   id="g14893">
                  <g
                     id="g15175"
                     y="0"
                     x="0">
                    <g
                       x="0"
                       y="0"
                       id="g15459">
                      <g
                         id="g16319"
                         y="0"
                         x="0">
                        <g
                           x="0"
                           y="0"
                           id="g16626">
                          <g
                             id="g16935"
                             y="0"
                             x="0">
                            <g
                               x="0"
                               y="0"
                               id="g17227">
                              <g
                                 id="g18111"
                                 y="0"
                                 x="0">
                                <g
                                   x="0"
                                   y="0"
                                   id="g18407">
                                <g
                                   x="0"
                                   y="0"
                                   id="g19004">
                                <g
                                   transform="translate(-139.43799,-55.249015)"
                                   x="0"
                                   y="0"
                                   id="g19605">
                                <g
                                   id="g19907"
                                   y="0"
                                   x="0">
                                <g
                                   id="g20535"
                                   y="0"
                                   x="0">
                                <g
                                   x="0"
                                   y="0"
                                   id="g20841">
                                <g
                                   id="g21149"
                                   y="0"
                                   x="0">
                                <g
                                   id="g21789"
                                   y="0"
                                   x="0">
                                <g
                                   id="g21791">
                                <rect
                                   id="rect21793"
                                   stroke-width="1"
                                   y="0"
                                   x="0"
                                   width="602.362204722"
                                   stroke="black"
                                   height="1133.85826771"
                                   fill="none" />
                                <g
                                   id="g21795">
                                <path
                                   id="path21797"
                                   style="stroke:#FF0000;stroke-width:0.05;fill:none"
                                   d="M 5.3149606299,103.078024337 l 0.0,103.078024337 l -10.6299212598,0.0 l -0.0,-103.078024337 Z M 5.3149606299,309.234073012 l 0.0,103.078024337 l -10.6299212598,0.0 l -0.0,-103.078024337 Z M 5.3149606299,515.390121687 l 0.0,103.078024337 l -10.6299212598,0.0 l -0.0,-103.078024337 Z M 5.3149606299,721.546170362 l 0.0,103.078024337 l -10.6299212598,0.0 l -0.0,-103.078024337 Z M 5.3149606299,927.702219037 l 0.0,103.078024337 l -10.6299212598,0.0 l -0.0,-103.078024337 Z" />
                                <path
                                   id="path21799"
                                   style="stroke:#FF0000;stroke-width:0.05;fill:none"
                                   d="M 54.7602004293,1128.54330708 l 54.7602004293,0.0 l -0.0,10.6299212598 l -54.7602004293,-0.0 Z M 164.280601288,1128.54330708 l 54.7602004293,0.0 l -0.0,10.6299212598 l -54.7602004293,-0.0 Z M 273.801002146,1128.54330708 l 54.7602004293,0.0 l -0.0,10.6299212598 l -54.7602004293,-0.0 Z M 383.321403005,1128.54330708 l 54.7602004293,0.0 l -0.0,10.6299212598 l -54.7602004293,-0.0 Z M 492.841803863,1128.54330708 l 54.7602004293,0.0 l -0.0,10.6299212598 l -54.7602004293,-0.0 Z" />
                                <path
                                   id="path21801"
                                   style="stroke:#FF0000;stroke-width:0.05;fill:none"
                                   d="M 597.047244092,1030.78024337 l 0.0,-103.078024337 l 10.6299212598,0.0 l -0.0,103.078024337 Z M 597.047244092,824.6241947 l 0.0,-103.078024337 l 10.6299212598,0.0 l -0.0,103.078024337 Z M 597.047244092,618.468146025 l 0.0,-103.078024337 l 10.6299212598,0.0 l -0.0,103.078024337 Z M 597.047244092,412.31209735 l 0.0,-103.078024337 l 10.6299212598,0.0 l -0.0,103.078024337 Z M 597.047244092,206.156048675 l 0.0,-103.078024337 l 10.6299212598,0.0 l -0.0,103.078024337 Z" />
                                <path
                                   id="path21803"
                                   style="stroke:#FF0000;stroke-width:0.05;fill:none"
                                   d="M 547.602004293,5.3149606299 l -54.7602004293,0.0 l -0.0,-10.6299212598 l 54.7602004293,-0.0 Z M 438.081603434,5.3149606299 l -54.7602004293,0.0 l -0.0,-10.6299212598 l 54.7602004293,-0.0 Z M 328.561202576,5.3149606299 l -54.7602004293,0.0 l -0.0,-10.6299212598 l 54.7602004293,-0.0 Z M 219.040801717,5.3149606299 l -54.7602004293,0.0 l -0.0,-10.6299212598 l 54.7602004293,-0.0 Z M 109.520400859,5.3149606299 l -54.7602004293,0.0 l -0.0,-10.6299212598 l 54.7602004293,-0.0 Z" />
                                <path
                                   id="path21805"
                                   style="stroke:#000000;stroke-width:1;fill:none"
                                   d="M0,0 h602.362204722 v1133.85826771 h-602.362204722 z" />
                                <g
                                   id="g21807"
                                   transform="translate(-611.68552,-89.450786)">
                                <path
                                   id="path21809"
                                   style="fill:none;stroke:#ff0000;stroke-width:0.05"
                                   d="M 612.3622,70.866142 V 0 h 602.3622 v 70.866142"
                                   inkscape:connector-curvature="0" />
                                <path
                                   id="path21811"
                                   style="fill:none;stroke:#ff0000;stroke-width:0.05"
                                   d="m 612.3622,70.866142 0,0 54.76021,0 0,10.629921 54.7602,0 0,-10.629921 54.7602,0 0,10.629921 54.7602,0 0,-10.629921 54.7602,0 0,10.629921 54.7602,0 0,-10.629921 54.7602,0 0,10.629921 54.76019,0 0,-10.629921 54.7602,0 0,10.629921 54.7602,0 0,-10.629921 54.7602,0 0,0"
                                   inkscape:connector-curvature="0" />
                                </g>
                                <g
                                   id="g21813">
                                <path
                                   id="path21815"
                                   style="stroke:#FF0000;stroke-width:0.05;fill:none"
                                   d="M612.362204722,162.362204724 v-70.866141732 h602.362204722 v70.866141732 " />
                                <path
                                   id="path21817"
                                   style="stroke:#FF0000;stroke-width:0.05;fill:none"
                                   d="M 612.362204722,162.362204724 l 0.0,0.0 l 54.7602004293,0.0 l -0.0,10.6299212598 l 54.7602004293,0.0 l 0.0,-10.6299212598 l 54.7602004293,0.0 l -0.0,10.6299212598 l 54.7602004293,0.0 l 0.0,-10.6299212598 l 54.7602004293,0.0 l -0.0,10.6299212598 l 54.7602004293,0.0 l 0.0,-10.6299212598 l 54.7602004293,0.0 l -0.0,10.6299212598 l 54.7602004293,0.0 l 0.0,-10.6299212598 l 54.7602004293,0.0 l -0.0,10.6299212598 l 54.7602004293,0.0 l 0.0,-10.6299212598 l 54.7602004293,0.0 L 1214.72440944,162.362204724" />
                                </g>
                                <g
                                   id="g21819"
                                   transform="matrix(0,1,-1,0,865.01133,-612.21803)">
                                <path
                                   id="path21821"
                                   style="fill:none;stroke:#ff0000;stroke-width:0.05"
                                   d="m 612.3622,253.85827 v -70.86614 h 1133.8583 v 70.86614"
                                   inkscape:connector-curvature="0" />
                                <path
                                   id="path21823"
                                   style="fill:none;stroke:#ff0000;stroke-width:0.05"
                                   d="m 612.3622,253.85827 0,0 103.07803,0 0,10.62992 103.07802,0 0,-10.62992 103.07803,0 0,10.62992 103.07802,0 0,-10.62992 103.078,0 0,10.62992 103.0781,0 0,-10.62992 103.078,0 0,10.62992 103.078,0 0,-10.62992 103.078,0 0,10.62992 103.078,0 0,-10.62992 103.0781,0"
                                   inkscape:connector-curvature="0" />
                                </g>
                                <g
                                   id="g21825">
                                <path
                                   id="path21827"
                                   style="stroke:#FF0000;stroke-width:0.05;fill:none"
                                   d="M612.362204722,345.354330707 v-70.866141732 h1133.85826771 v70.866141732 " />
                                <path
                                   id="path21829"
                                   style="stroke:#FF0000;stroke-width:0.05;fill:none"
                                   d="M 612.362204722,345.354330707 l 0.0,0.0 l 103.078024337,0.0 l -0.0,10.6299212598 l 103.078024337,0.0 l 0.0,-10.6299212598 l 103.078024337,0.0 l -0.0,10.6299212598 l 103.078024337,0.0 l 0.0,-10.6299212598 l 103.078024337,0.0 l -0.0,10.6299212598 l 103.078024337,0.0 l 0.0,-10.6299212598 l 103.078024337,0.0 l -0.0,10.6299212598 l 103.078024337,0.0 l 0.0,-10.6299212598 l 103.078024337,0.0 l -0.0,10.6299212598 l 103.078024337,0.0 l 0.0,-10.6299212598 L 1746.22047243,345.354330707" />
                                </g>
                                </g>
                                </g>
                                <g
                                   id="g21831">
                                <path
                                   id="path21833"
                                   style="stroke:#FF0000;stroke-width:0.05;fill:none"
                                   d="M 26.0679559891,18.5514665829 l 22.309711286,22.309711286 l -7.51648940628,7.51648940628 l -22.309711286,-22.309711286 Z M 70.6873785611,63.1708891549 l 22.309711286,22.309711286 l -7.51648940628,7.51648940628 l -22.309711286,-22.309711286 Z M 115.306801133,107.790311727 l 22.309711286,22.309711286 l -7.51648940628,7.51648940628 l -22.309711286,-22.309711286 Z M 159.926223705,152.409734299 l 22.309711286,22.309711286 l -7.51648940628,7.51648940628 l -22.309711286,-22.309711286 Z M 204.545646277,197.029156871 l 22.309711286,22.309711286 l -7.51648940628,7.51648940628 l -22.309711286,-22.309711286 Z M 249.165068849,241.648579443 l 22.309711286,22.309711286 l -7.51648940628,7.51648940628 l -22.309711286,-22.309711286 Z M 293.784491421,286.268002015 l 22.309711286,22.309711286 l -7.51648940628,7.51648940628 l -22.309711286,-22.309711286 Z M 338.403913993,330.887424587 l 22.309711286,22.309711286 l -7.51648940628,7.51648940628 l -22.309711286,-22.309711286 Z M 383.023336565,375.506847159 l 22.309711286,22.309711286 l -7.51648940628,7.51648940628 l -22.309711286,-22.309711286 Z M 427.642759137,420.126269731 l 22.309711286,22.309711286 l -7.51648940628,7.51648940628 l -22.309711286,-22.309711286 Z M 472.262181709,464.745692303 l 22.309711286,22.309711286 l -7.51648940628,7.51648940628 l -22.309711286,-22.309711286 Z M 516.881604281,509.365114875 l 22.309711286,22.309711286 l -7.51648940628,7.51648940628 l -22.309711286,-22.309711286 Z M 561.501026853,553.984537447 l 22.309711286,22.309711286 l -7.51648940628,7.51648940628 l -22.309711286,-22.309711286 Z" />
                                <line
                                   id="line21835"
                                   stroke-width="1"
                                   y2="602.362204722"
                                   y1="0"
                                   x2="602.362204722"
                                   x1="0"
                                   stroke="black" />
                                <path
                                   id="path21837"
                                   style="stroke:#FF0000;stroke-width:0.05;fill:none"
                                   d="M 583.810738139,26.0679559891 l -22.309711286,22.309711286 l -7.51648940628,-7.51648940628 l 22.309711286,-22.309711286 Z M 539.191315567,70.6873785611 l -22.309711286,22.309711286 l -7.51648940628,-7.51648940628 l 22.309711286,-22.309711286 Z M 494.571892995,115.306801133 l -22.309711286,22.309711286 l -7.51648940628,-7.51648940628 l 22.309711286,-22.309711286 Z M 449.952470423,159.926223705 l -22.309711286,22.309711286 l -7.51648940628,-7.51648940628 l 22.309711286,-22.309711286 Z M 405.333047851,204.545646277 l -22.309711286,22.309711286 l -7.51648940628,-7.51648940628 l 22.309711286,-22.309711286 Z M 360.713625279,249.165068849 l -22.309711286,22.309711286 l -7.51648940628,-7.51648940628 l 22.309711286,-22.309711286 Z M 316.094202707,293.784491421 l -22.309711286,22.309711286 l -7.51648940628,-7.51648940628 l 22.309711286,-22.309711286 Z M 271.474780135,338.403913993 l -22.309711286,22.309711286 l -7.51648940628,-7.51648940628 l 22.309711286,-22.309711286 Z M 226.855357563,383.023336565 l -22.309711286,22.309711286 l -7.51648940628,-7.51648940628 l 22.309711286,-22.309711286 Z M 182.235934991,427.642759137 l -22.309711286,22.309711286 l -7.51648940628,-7.51648940628 l 22.309711286,-22.309711286 Z M 137.616512419,472.262181709 l -22.309711286,22.309711286 l -7.51648940628,-7.51648940628 l 22.309711286,-22.309711286 Z M 92.9970898471,516.881604281 l -22.309711286,22.309711286 l -7.51648940628,-7.51648940628 l 22.309711286,-22.309711286 Z M 48.3776672751,561.501026853 l -22.309711286,22.309711286 l -7.51648940628,-7.51648940628 l 22.309711286,-22.309711286 Z" />
                                <line
                                   id="line21839"
                                   stroke-width="1"
                                   y2="602.362204722"
                                   y1="0"
                                   x2="0"
                                   x1="602.362204722"
                                   stroke="black" />
                                <path
                                   id="path21841"
                                   style="stroke:#FF0000;stroke-width:0.05;fill:none"
                                   d="M 26.0679559891,550.047529573 l 22.309711286,22.309711286 l -7.51648940628,7.51648940628 l -22.309711286,-22.309711286 Z M 70.6873785611,594.666952145 l 22.309711286,22.309711286 l -7.51648940628,7.51648940628 l -22.309711286,-22.309711286 Z M 115.306801133,639.286374717 l 22.309711286,22.309711286 l -7.51648940628,7.51648940628 l -22.309711286,-22.309711286 Z M 159.926223705,683.905797289 l 22.309711286,22.309711286 l -7.51648940628,7.51648940628 l -22.309711286,-22.309711286 Z M 204.545646277,728.525219861 l 22.309711286,22.309711286 l -7.51648940628,7.51648940628 l -22.309711286,-22.309711286 Z M 249.165068849,773.144642433 l 22.309711286,22.309711286 l -7.51648940628,7.51648940628 l -22.309711286,-22.309711286 Z M 293.784491421,817.764065005 l 22.309711286,22.309711286 l -7.51648940628,7.51648940628 l -22.309711286,-22.309711286 Z M 338.403913993,862.383487577 l 22.309711286,22.309711286 l -7.51648940628,7.51648940628 l -22.309711286,-22.309711286 Z M 383.023336565,907.002910149 l 22.309711286,22.309711286 l -7.51648940628,7.51648940628 l -22.309711286,-22.309711286 Z M 427.642759137,951.622332721 l 22.309711286,22.309711286 l -7.51648940628,7.51648940628 l -22.309711286,-22.309711286 Z M 472.262181709,996.241755293 l 22.309711286,22.309711286 l -7.51648940628,7.51648940628 l -22.309711286,-22.309711286 Z M 516.881604281,1040.86117786 l 22.309711286,22.309711286 l -7.51648940628,7.51648940628 l -22.309711286,-22.309711286 Z M 561.501026853,1085.48060044 l 22.309711286,22.309711286 l -7.51648940628,7.51648940628 l -22.309711286,-22.309711286 Z" />
                                <line
                                   id="line21843"
                                   stroke-width="1"
                                   y2="1133.85826771"
                                   y1="531.49606299"
                                   x2="602.362204722"
                                   x1="0"
                                   stroke="black" />
                                <path
                                   id="path21845"
                                   style="stroke:#FF0000;stroke-width:0.05;fill:none"
                                   d="M 583.810738139,557.564018979 l -22.309711286,22.309711286 l -7.51648940628,-7.51648940628 l 22.309711286,-22.309711286 Z M 539.191315567,602.183441551 l -22.309711286,22.309711286 l -7.51648940628,-7.51648940628 l 22.309711286,-22.309711286 Z M 494.571892995,646.802864123 l -22.309711286,22.309711286 l -7.51648940628,-7.51648940628 l 22.309711286,-22.309711286 Z M 449.952470423,691.422286695 l -22.309711286,22.309711286 l -7.51648940628,-7.51648940628 l 22.309711286,-22.309711286 Z M 405.333047851,736.041709267 l -22.309711286,22.309711286 l -7.51648940628,-7.51648940628 l 22.309711286,-22.309711286 Z M 360.713625279,780.661131839 l -22.309711286,22.309711286 l -7.51648940628,-7.51648940628 l 22.309711286,-22.309711286 Z M 316.094202707,825.280554411 l -22.309711286,22.309711286 l -7.51648940628,-7.51648940628 l 22.309711286,-22.309711286 Z M 271.474780135,869.899976983 l -22.309711286,22.309711286 l -7.51648940628,-7.51648940628 l 22.309711286,-22.309711286 Z M 226.855357563,914.519399555 l -22.309711286,22.309711286 l -7.51648940628,-7.51648940628 l 22.309711286,-22.309711286 Z M 182.235934991,959.138822127 l -22.309711286,22.309711286 l -7.51648940628,-7.51648940628 l 22.309711286,-22.309711286 Z M 137.616512419,1003.7582447 l -22.309711286,22.309711286 l -7.51648940628,-7.51648940628 l 22.309711286,-22.309711286 Z M 92.9970898471,1048.37766727 l -22.309711286,22.309711286 l -7.51648940628,-7.51648940628 l 22.309711286,-22.309711286 Z M 48.3776672751,1092.99708984 l -22.309711286,22.309711286 l -7.51648940628,-7.51648940628 l 22.309711286,-22.309711286 Z" />
                                <line
                                   id="line21847"
                                   stroke-width="1"
                                   y2="1133.85826771"
                                   y1="531.49606299"
                                   x2="0"
                                   x1="602.362204722"
                                   stroke="black" />
                                </g>
                                <g
                                   id="g21849">
                                <g
                                   id="g21851">
                                <path
                                   id="path21853"
                                   style="stroke:#FF0000;stroke-width:0.05;fill:none"
                                   d="M 76.1811023619,112.741589119 l 0.0,41.8754473871 l -10.6299212598,0.0 l -0.0,-41.8754473871 Z M 76.1811023619,196.492483893 l 0.0,41.8754473871 l -10.6299212598,0.0 l -0.0,-41.8754473871 Z M 76.1811023619,280.243378667 l 0.0,41.8754473871 l -10.6299212598,0.0 l -0.0,-41.8754473871 Z M 76.1811023619,363.994273442 l 0.0,41.8754473871 l -10.6299212598,0.0 l -0.0,-41.8754473871 Z M 76.1811023619,447.745168216 l 0.0,41.8754473871 l -10.6299212598,0.0 l -0.0,-41.8754473871 Z" />
                                <path
                                   id="path21855"
                                   style="stroke:#FF0000;stroke-width:0.05;fill:none"
                                   d="M 112.741589119,526.18110236 l 41.8754473871,0.0 l -0.0,10.6299212598 l -41.8754473871,-0.0 Z M 196.492483893,526.18110236 l 41.8754473871,0.0 l -0.0,10.6299212598 l -41.8754473871,-0.0 Z M 280.243378667,526.18110236 l 41.8754473871,0.0 l -0.0,10.6299212598 l -41.8754473871,-0.0 Z M 363.994273442,526.18110236 l 41.8754473871,0.0 l -0.0,10.6299212598 l -41.8754473871,-0.0 Z M 447.745168216,526.18110236 l 41.8754473871,0.0 l -0.0,10.6299212598 l -41.8754473871,-0.0 Z" />
                                <path
                                   id="path21857"
                                   style="stroke:#FF0000;stroke-width:0.05;fill:none"
                                   d="M 526.18110236,489.620615603 l 0.0,-41.8754473871 l 10.6299212598,0.0 l -0.0,41.8754473871 Z M 526.18110236,405.869720829 l 0.0,-41.8754473871 l 10.6299212598,0.0 l -0.0,41.8754473871 Z M 526.18110236,322.118826055 l 0.0,-41.8754473871 l 10.6299212598,0.0 l -0.0,41.8754473871 Z M 526.18110236,238.36793128 l 0.0,-41.8754473871 l 10.6299212598,0.0 l -0.0,41.8754473871 Z M 526.18110236,154.617036506 l 0.0,-41.8754473871 l 10.6299212598,0.0 l -0.0,41.8754473871 Z" />
                                <path
                                   id="path21859"
                                   style="stroke:#FF0000;stroke-width:0.05;fill:none"
                                   d="M 489.620615603,76.1811023619 l -41.8754473871,0.0 l -0.0,-10.6299212598 l 41.8754473871,-0.0 Z M 405.869720829,76.1811023619 l -41.8754473871,0.0 l -0.0,-10.6299212598 l 41.8754473871,-0.0 Z M 322.118826055,76.1811023619 l -41.8754473871,0.0 l -0.0,-10.6299212598 l 41.8754473871,-0.0 Z M 238.36793128,76.1811023619 l -41.8754473871,0.0 l -0.0,-10.6299212598 l 41.8754473871,-0.0 Z M 154.617036506,76.1811023619 l -41.8754473871,0.0 l -0.0,-10.6299212598 l 41.8754473871,-0.0 Z" />
                                <path
                                   id="path21861"
                                   style="stroke:#000000;stroke-width:1;fill:none"
                                   d="M70.866141732,70.866141732 h460.629921258 v460.629921258 h-460.629921258 z" />
                                <g
                                   id="g21863">
                                <path
                                   id="path21865"
                                   style="stroke:#FF0000;stroke-width:0.05;fill:none"
                                   d="M612.362204722,436.850393699 v-70.866141732 h460.629921258 v70.866141732 " />
                                <path
                                   id="path21867"
                                   style="stroke:#FF0000;stroke-width:0.05;fill:none"
                                   d="M 612.362204722,436.850393699 l 0.0,0.0 l 41.8754473871,0.0 l -0.0,10.6299212598 l 41.8754473871,0.0 l 0.0,-10.6299212598 l 41.8754473871,0.0 l -0.0,10.6299212598 l 41.8754473871,0.0 l 0.0,-10.6299212598 l 41.8754473871,0.0 l -0.0,10.6299212598 l 41.8754473871,0.0 l 0.0,-10.6299212598 l 41.8754473871,0.0 l -0.0,10.6299212598 l 41.8754473871,0.0 l 0.0,-10.6299212598 l 41.8754473871,0.0 l -0.0,10.6299212598 l 41.8754473871,0.0 l 0.0,-10.6299212598 l 41.8754473871,0.0 L 1072.99212598,436.850393699" />
                                </g>
                                <g
                                   id="g21869">
                                <path
                                   id="path21871"
                                   style="stroke:#FF0000;stroke-width:0.05;fill:none"
                                   d="M612.362204722,528.346456691 v-70.866141732 h460.629921258 v70.866141732 " />
                                <path
                                   id="path21873"
                                   style="stroke:#FF0000;stroke-width:0.05;fill:none"
                                   d="M 612.362204722,528.346456691 l 0.0,0.0 l 41.8754473871,0.0 l -0.0,10.6299212598 l 41.8754473871,0.0 l 0.0,-10.6299212598 l 41.8754473871,0.0 l -0.0,10.6299212598 l 41.8754473871,0.0 l 0.0,-10.6299212598 l 41.8754473871,0.0 l -0.0,10.6299212598 l 41.8754473871,0.0 l 0.0,-10.6299212598 l 41.8754473871,0.0 l -0.0,10.6299212598 l 41.8754473871,0.0 l 0.0,-10.6299212598 l 41.8754473871,0.0 l -0.0,10.6299212598 l 41.8754473871,0.0 l 0.0,-10.6299212598 l 41.8754473871,0.0 L 1072.99212598,528.346456691" />
                                </g>
                                <g
                                   id="g21875">
                                <path
                                   id="path21877"
                                   style="stroke:#FF0000;stroke-width:0.05;fill:none"
                                   d="M612.362204722,619.842519683 v-70.866141732 h460.629921258 v70.866141732 " />
                                <path
                                   id="path21879"
                                   style="stroke:#FF0000;stroke-width:0.05;fill:none"
                                   d="M 612.362204722,619.842519683 l 0.0,0.0 l 41.8754473871,0.0 l -0.0,10.6299212598 l 41.8754473871,0.0 l 0.0,-10.6299212598 l 41.8754473871,0.0 l -0.0,10.6299212598 l 41.8754473871,0.0 l 0.0,-10.6299212598 l 41.8754473871,0.0 l -0.0,10.6299212598 l 41.8754473871,0.0 l 0.0,-10.6299212598 l 41.8754473871,0.0 l -0.0,10.6299212598 l 41.8754473871,0.0 l 0.0,-10.6299212598 l 41.8754473871,0.0 l -0.0,10.6299212598 l 41.8754473871,0.0 l 0.0,-10.6299212598 l 41.8754473871,0.0 L 1072.99212598,619.842519683" />
                                </g>
                                <g
                                   id="g21881">
                                <path
                                   id="path21883"
                                   style="stroke:#FF0000;stroke-width:0.05;fill:none"
                                   d="M612.362204722,711.338582675 v-70.866141732 h460.629921258 v70.866141732 " />
                                <path
                                   id="path21885"
                                   style="stroke:#FF0000;stroke-width:0.05;fill:none"
                                   d="M 612.362204722,711.338582675 l 0.0,0.0 l 41.8754473871,0.0 l -0.0,10.6299212598 l 41.8754473871,0.0 l 0.0,-10.6299212598 l 41.8754473871,0.0 l -0.0,10.6299212598 l 41.8754473871,0.0 l 0.0,-10.6299212598 l 41.8754473871,0.0 l -0.0,10.6299212598 l 41.8754473871,0.0 l 0.0,-10.6299212598 l 41.8754473871,0.0 l -0.0,10.6299212598 l 41.8754473871,0.0 l 0.0,-10.6299212598 l 41.8754473871,0.0 l -0.0,10.6299212598 l 41.8754473871,0.0 l 0.0,-10.6299212598 l 41.8754473871,0.0 L 1072.99212598,711.338582675" />
                                </g>
                                </g>
                                <g
                                   id="g21887">
                                <path
                                   id="path21889"
                                   style="stroke:#FF0000;stroke-width:0.05;fill:none"
                                   d="M 76.1811023619,644.237652109 l 0.0,41.8754473871 l -10.6299212598,0.0 l -0.0,-41.8754473871 Z M 76.1811023619,727.988546883 l 0.0,41.8754473871 l -10.6299212598,0.0 l -0.0,-41.8754473871 Z M 76.1811023619,811.739441657 l 0.0,41.8754473871 l -10.6299212598,0.0 l -0.0,-41.8754473871 Z M 76.1811023619,895.490336432 l 0.0,41.8754473871 l -10.6299212598,0.0 l -0.0,-41.8754473871 Z M 76.1811023619,979.241231206 l 0.0,41.8754473871 l -10.6299212598,0.0 l -0.0,-41.8754473871 Z" />
                                <path
                                   id="path21891"
                                   style="stroke:#FF0000;stroke-width:0.05;fill:none"
                                   d="M 112.741589119,1057.67716535 l 41.8754473871,0.0 l -0.0,10.6299212598 l -41.8754473871,-0.0 Z M 196.492483893,1057.67716535 l 41.8754473871,0.0 l -0.0,10.6299212598 l -41.8754473871,-0.0 Z M 280.243378667,1057.67716535 l 41.8754473871,0.0 l -0.0,10.6299212598 l -41.8754473871,-0.0 Z M 363.994273442,1057.67716535 l 41.8754473871,0.0 l -0.0,10.6299212598 l -41.8754473871,-0.0 Z M 447.745168216,1057.67716535 l 41.8754473871,0.0 l -0.0,10.6299212598 l -41.8754473871,-0.0 Z" />
                                <path
                                   id="path21893"
                                   style="stroke:#FF0000;stroke-width:0.05;fill:none"
                                   d="M 526.18110236,1021.11667859 l 0.0,-41.8754473871 l 10.6299212598,0.0 l -0.0,41.8754473871 Z M 526.18110236,937.365783819 l 0.0,-41.8754473871 l 10.6299212598,0.0 l -0.0,41.8754473871 Z M 526.18110236,853.614889045 l 0.0,-41.8754473871 l 10.6299212598,0.0 l -0.0,41.8754473871 Z M 526.18110236,769.86399427 l 0.0,-41.8754473871 l 10.6299212598,0.0 l -0.0,41.8754473871 Z M 526.18110236,686.113099496 l 0.0,-41.8754473871 l 10.6299212598,0.0 l -0.0,41.8754473871 Z" />
                                <path
                                   id="path21895"
                                   style="stroke:#FF0000;stroke-width:0.05;fill:none"
                                   d="M 489.620615603,607.677165352 l -41.8754473871,0.0 l -0.0,-10.6299212598 l 41.8754473871,-0.0 Z M 405.869720829,607.677165352 l -41.8754473871,0.0 l -0.0,-10.6299212598 l 41.8754473871,-0.0 Z M 322.118826055,607.677165352 l -41.8754473871,0.0 l -0.0,-10.6299212598 l 41.8754473871,-0.0 Z M 238.36793128,607.677165352 l -41.8754473871,0.0 l -0.0,-10.6299212598 l 41.8754473871,-0.0 Z M 154.617036506,607.677165352 l -41.8754473871,0.0 l -0.0,-10.6299212598 l 41.8754473871,-0.0 Z" />
                                <path
                                   id="path21897"
                                   style="stroke:#000000;stroke-width:1;fill:none"
                                   d="M70.866141732,602.362204722 h460.629921258 v460.629921258 h-460.629921258 z" />
                                <g
                                   id="g21899">
                                <path
                                   id="path21901"
                                   style="stroke:#FF0000;stroke-width:0.05;fill:none"
                                   d="M612.362204722,802.834645666 v-70.866141732 h460.629921258 v70.866141732 " />
                                <path
                                   id="path21903"
                                   style="stroke:#FF0000;stroke-width:0.05;fill:none"
                                   d="M 612.362204722,802.834645666 l 0.0,0.0 l 41.8754473871,0.0 l -0.0,10.6299212598 l 41.8754473871,0.0 l 0.0,-10.6299212598 l 41.8754473871,0.0 l -0.0,10.6299212598 l 41.8754473871,0.0 l 0.0,-10.6299212598 l 41.8754473871,0.0 l -0.0,10.6299212598 l 41.8754473871,0.0 l 0.0,-10.6299212598 l 41.8754473871,0.0 l -0.0,10.6299212598 l 41.8754473871,0.0 l 0.0,-10.6299212598 l 41.8754473871,0.0 l -0.0,10.6299212598 l 41.8754473871,0.0 l 0.0,-10.6299212598 l 41.8754473871,0.0 L 1072.99212598,802.834645666" />
                                </g>
                                <g
                                   id="g21905">
                                <path
                                   id="path21907"
                                   style="stroke:#FF0000;stroke-width:0.05;fill:none"
                                   d="M612.362204722,894.330708658 v-70.866141732 h460.629921258 v70.866141732 " />
                                <path
                                   id="path21909"
                                   style="stroke:#FF0000;stroke-width:0.05;fill:none"
                                   d="M 612.362204722,894.330708658 l 0.0,0.0 l 41.8754473871,0.0 l -0.0,10.6299212598 l 41.8754473871,0.0 l 0.0,-10.6299212598 l 41.8754473871,0.0 l -0.0,10.6299212598 l 41.8754473871,0.0 l 0.0,-10.6299212598 l 41.8754473871,0.0 l -0.0,10.6299212598 l 41.8754473871,0.0 l 0.0,-10.6299212598 l 41.8754473871,0.0 l -0.0,10.6299212598 l 41.8754473871,0.0 l 0.0,-10.6299212598 l 41.8754473871,0.0 l -0.0,10.6299212598 l 41.8754473871,0.0 l 0.0,-10.6299212598 l 41.8754473871,0.0 L 1072.99212598,894.330708658" />
                                </g>
                                <g
                                   id="g21911">
                                <path
                                   id="path21913"
                                   style="stroke:#FF0000;stroke-width:0.05;fill:none"
                                   d="M612.362204722,985.82677165 v-70.866141732 h460.629921258 v70.866141732 " />
                                <path
                                   id="path21915"
                                   style="stroke:#FF0000;stroke-width:0.05;fill:none"
                                   d="M 612.362204722,985.82677165 l 0.0,0.0 l 41.8754473871,0.0 l -0.0,10.6299212598 l 41.8754473871,0.0 l 0.0,-10.6299212598 l 41.8754473871,0.0 l -0.0,10.6299212598 l 41.8754473871,0.0 l 0.0,-10.6299212598 l 41.8754473871,0.0 l -0.0,10.6299212598 l 41.8754473871,0.0 l 0.0,-10.6299212598 l 41.8754473871,0.0 l -0.0,10.6299212598 l 41.8754473871,0.0 l 0.0,-10.6299212598 l 41.8754473871,0.0 l -0.0,10.6299212598 l 41.8754473871,0.0 l 0.0,-10.6299212598 l 41.8754473871,0.0 L 1072.99212598,985.82677165" />
                                </g>
                                <g
                                   id="g21917">
                                <path
                                   id="path21919"
                                   style="stroke:#FF0000;stroke-width:0.05;fill:none"
                                   d="M612.362204722,1077.32283464 v-70.866141732 h460.629921258 v70.866141732 " />
                                <path
                                   id="path21921"
                                   style="stroke:#FF0000;stroke-width:0.05;fill:none"
                                   d="M 612.362204722,1077.32283464 l 0.0,0.0 l 41.8754473871,0.0 l -0.0,10.6299212598 l 41.8754473871,0.0 l 0.0,-10.6299212598 l 41.8754473871,0.0 l -0.0,10.6299212598 l 41.8754473871,0.0 l 0.0,-10.6299212598 l 41.8754473871,0.0 l -0.0,10.6299212598 l 41.8754473871,0.0 l 0.0,-10.6299212598 l 41.8754473871,0.0 l -0.0,10.6299212598 l 41.8754473871,0.0 l 0.0,-10.6299212598 l 41.8754473871,0.0 l -0.0,10.6299212598 l 41.8754473871,0.0 l 0.0,-10.6299212598 l 41.8754473871,0.0 L 1072.99212598,1077.32283464" />
                                </g>
                                </g>
                                </g>
                                <g
                                   id="g21923">
                                <path
                                   id="path21925"
                                   style="stroke:#FF0000;stroke-width:0.05;fill:none"
                                   d="M612.362204722,1168.81889763 v-70.866141732 h851.868799379 v70.866141732 " />
                                <path
                                   id="path21927"
                                   style="stroke:#FF0000;stroke-width:0.05;fill:none"
                                   d="M 612.362204722,1168.81889763 l 0.0,0.0 l 31.5506962733,0.0 l -0.0,10.6299212598 l 31.5506962733,0.0 l 0.0,-10.6299212598 l 31.5506962733,0.0 l -0.0,10.6299212598 l 31.5506962733,0.0 l 0.0,-10.6299212598 l 31.5506962733,0.0 l -0.0,10.6299212598 l 31.5506962733,0.0 l 0.0,-10.6299212598 l 31.5506962733,0.0 l -0.0,10.6299212598 l 31.5506962733,0.0 l 0.0,-10.6299212598 l 31.5506962733,0.0 l -0.0,10.6299212598 l 31.5506962733,0.0 l 0.0,-10.6299212598 l 31.5506962733,0.0 l -0.0,10.6299212598 l 31.5506962733,0.0 l 0.0,-10.6299212598 l 31.5506962733,0.0 l -0.0,10.6299212598 l 31.5506962733,0.0 l 0.0,-10.6299212598 l 31.5506962733,0.0 l -0.0,10.6299212598 l 31.5506962733,0.0 l 0.0,-10.6299212598 l 31.5506962733,0.0 l -0.0,10.6299212598 l 31.5506962733,0.0 l 0.0,-10.6299212598 l 31.5506962733,0.0 l -0.0,10.6299212598 l 31.5506962733,0.0 l 0.0,-10.6299212598 l 31.5506962733,0.0 l -0.0,10.6299212598 l 31.5506962733,0.0 l 0.0,-10.6299212598 l 31.5506962733,0.0 l -0.0,10.6299212598 l 31.5506962733,0.0 l 0.0,-10.6299212598 l 31.5506962733,0.0 l -0.0,10.6299212598 l 31.5506962733,0.0 l 0.0,-10.6299212598 l 31.5506962733,0.0 L 1464.2310041,1168.81889763" />
                                <path
                                   id="path21929"
                                   style="stroke:#FF0000;stroke-width:0.05;fill:none"
                                   d="M1032.98164378,1179.44881889 v-46.0629921258 h10.6299212598 v46.0629921258 " />
                                <path
                                   id="path21931"
                                   style="stroke:#FF0000;stroke-width:0.05;fill:none"
                                   d="M657.157173467,1179.44881889 v-46.0629921258 h10.6299212598 v46.0629921258 " />
                                </g>
                                <g
                                   id="g21933">
                                <path
                                   id="path21935"
                                   style="stroke:#FF0000;stroke-width:0.05;fill:none"
                                   d="M612.362204722,1260.31496063 v-70.866141732 h851.868799379 v70.866141732 " />
                                <path
                                   id="path21937"
                                   style="stroke:#FF0000;stroke-width:0.05;fill:none"
                                   d="M 612.362204722,1260.31496063 l 0.0,0.0 l 31.5506962733,0.0 l -0.0,10.6299212598 l 31.5506962733,0.0 l 0.0,-10.6299212598 l 31.5506962733,0.0 l -0.0,10.6299212598 l 31.5506962733,0.0 l 0.0,-10.6299212598 l 31.5506962733,0.0 l -0.0,10.6299212598 l 31.5506962733,0.0 l 0.0,-10.6299212598 l 31.5506962733,0.0 l -0.0,10.6299212598 l 31.5506962733,0.0 l 0.0,-10.6299212598 l 31.5506962733,0.0 l -0.0,10.6299212598 l 31.5506962733,0.0 l 0.0,-10.6299212598 l 31.5506962733,0.0 l -0.0,10.6299212598 l 31.5506962733,0.0 l 0.0,-10.6299212598 l 31.5506962733,0.0 l -0.0,10.6299212598 l 31.5506962733,0.0 l 0.0,-10.6299212598 l 31.5506962733,0.0 l -0.0,10.6299212598 l 31.5506962733,0.0 l 0.0,-10.6299212598 l 31.5506962733,0.0 l -0.0,10.6299212598 l 31.5506962733,0.0 l 0.0,-10.6299212598 l 31.5506962733,0.0 l -0.0,10.6299212598 l 31.5506962733,0.0 l 0.0,-10.6299212598 l 31.5506962733,0.0 l -0.0,10.6299212598 l 31.5506962733,0.0 l 0.0,-10.6299212598 l 31.5506962733,0.0 l -0.0,10.6299212598 l 31.5506962733,0.0 l 0.0,-10.6299212598 l 31.5506962733,0.0 l -0.0,10.6299212598 l 31.5506962733,0.0 l 0.0,-10.6299212598 l 31.5506962733,0.0 L 1464.2310041,1260.31496063" />
                                <path
                                   id="path21939"
                                   style="stroke:#FF0000;stroke-width:0.05;fill:none"
                                   d="M1032.98164378,1270.94488189 v-46.0629921258 h10.6299212598 v46.0629921258 " />
                                <path
                                   id="path21941"
                                   style="stroke:#FF0000;stroke-width:0.05;fill:none"
                                   d="M657.157173467,1189.44881889 v35.433070866 h10.6299212598 v-35.433070866 " />
                                </g>
                                <g
                                   id="g21943">
                                <path
                                   id="path21945"
                                   style="stroke:#FF0000;stroke-width:0.05;fill:none"
                                   d="M612.362204722,1351.81102362 v-70.866141732 h851.868799379 v70.866141732 " />
                                <path
                                   id="path21947"
                                   style="stroke:#FF0000;stroke-width:0.05;fill:none"
                                   d="M 612.362204722,1351.81102362 l 0.0,0.0 l 31.5506962733,0.0 l -0.0,10.6299212598 l 31.5506962733,0.0 l 0.0,-10.6299212598 l 31.5506962733,0.0 l -0.0,10.6299212598 l 31.5506962733,0.0 l 0.0,-10.6299212598 l 31.5506962733,0.0 l -0.0,10.6299212598 l 31.5506962733,0.0 l 0.0,-10.6299212598 l 31.5506962733,0.0 l -0.0,10.6299212598 l 31.5506962733,0.0 l 0.0,-10.6299212598 l 31.5506962733,0.0 l -0.0,10.6299212598 l 31.5506962733,0.0 l 0.0,-10.6299212598 l 31.5506962733,0.0 l -0.0,10.6299212598 l 31.5506962733,0.0 l 0.0,-10.6299212598 l 31.5506962733,0.0 l -0.0,10.6299212598 l 31.5506962733,0.0 l 0.0,-10.6299212598 l 31.5506962733,0.0 l -0.0,10.6299212598 l 31.5506962733,0.0 l 0.0,-10.6299212598 l 31.5506962733,0.0 l -0.0,10.6299212598 l 31.5506962733,0.0 l 0.0,-10.6299212598 l 31.5506962733,0.0 l -0.0,10.6299212598 l 31.5506962733,0.0 l 0.0,-10.6299212598 l 31.5506962733,0.0 l -0.0,10.6299212598 l 31.5506962733,0.0 l 0.0,-10.6299212598 l 31.5506962733,0.0 l -0.0,10.6299212598 l 31.5506962733,0.0 l 0.0,-10.6299212598 l 31.5506962733,0.0 l -0.0,10.6299212598 l 31.5506962733,0.0 l 0.0,-10.6299212598 l 31.5506962733,0.0 L 1464.2310041,1351.81102362" />
                                <path
                                   id="path21949"
                                   style="stroke:#FF0000;stroke-width:0.05;fill:none"
                                   d="M1032.98164378,1280.94488189 v35.433070866 h10.6299212598 v-35.433070866 " />
                                <path
                                   id="path21951"
                                   style="stroke:#FF0000;stroke-width:0.05;fill:none"
                                   d="M657.157173467,1362.44094488 v-46.0629921258 h10.6299212598 v46.0629921258 " />
                                </g>
                                <g
                                   id="g21953">
                                <path
                                   id="path21955"
                                   style="stroke:#FF0000;stroke-width:0.05;fill:none"
                                   d="M612.362204722,1443.30708661 v-70.866141732 h851.868799379 v70.866141732 " />
                                <path
                                   id="path21957"
                                   style="stroke:#FF0000;stroke-width:0.05;fill:none"
                                   d="M 612.362204722,1443.30708661 l 0.0,0.0 l 31.5506962733,0.0 l -0.0,10.6299212598 l 31.5506962733,0.0 l 0.0,-10.6299212598 l 31.5506962733,0.0 l -0.0,10.6299212598 l 31.5506962733,0.0 l 0.0,-10.6299212598 l 31.5506962733,0.0 l -0.0,10.6299212598 l 31.5506962733,0.0 l 0.0,-10.6299212598 l 31.5506962733,0.0 l -0.0,10.6299212598 l 31.5506962733,0.0 l 0.0,-10.6299212598 l 31.5506962733,0.0 l -0.0,10.6299212598 l 31.5506962733,0.0 l 0.0,-10.6299212598 l 31.5506962733,0.0 l -0.0,10.6299212598 l 31.5506962733,0.0 l 0.0,-10.6299212598 l 31.5506962733,0.0 l -0.0,10.6299212598 l 31.5506962733,0.0 l 0.0,-10.6299212598 l 31.5506962733,0.0 l -0.0,10.6299212598 l 31.5506962733,0.0 l 0.0,-10.6299212598 l 31.5506962733,0.0 l -0.0,10.6299212598 l 31.5506962733,0.0 l 0.0,-10.6299212598 l 31.5506962733,0.0 l -0.0,10.6299212598 l 31.5506962733,0.0 l 0.0,-10.6299212598 l 31.5506962733,0.0 l -0.0,10.6299212598 l 31.5506962733,0.0 l 0.0,-10.6299212598 l 31.5506962733,0.0 l -0.0,10.6299212598 l 31.5506962733,0.0 l 0.0,-10.6299212598 l 31.5506962733,0.0 l -0.0,10.6299212598 l 31.5506962733,0.0 l 0.0,-10.6299212598 l 31.5506962733,0.0 L 1464.2310041,1443.30708661" />
                                <path
                                   id="path21959"
                                   style="stroke:#FF0000;stroke-width:0.05;fill:none"
                                   d="M1032.98164378,1372.44094488 v35.433070866 h10.6299212598 v-35.433070866 " />
                                <path
                                   id="path21961"
                                   style="stroke:#FF0000;stroke-width:0.05;fill:none"
                                   d="M657.157173467,1372.44094488 v35.433070866 h10.6299212598 v-35.433070866 " />
                                </g>
                                </g>
                                </g>
                                </g>
                                </g>
                                </g>
                                </g>
                                </g>
                                </g>
                              </g>
                            </g>
                          </g>
                        </g>
                      </g>
                    </g>
                  </g>
                </g>
              </g>
            </g>
          </g>
        </g>
      </g>
    </g>
  </g>
</svg>
